<svg width="323" height="342" viewBox="0 0 323 342" fill="none" xmlns="http://www.w3.org/2000/svg">
<path d="M8.15967 234.13C31.993 228.13 86.6597 231.23 114.66 291.63C80.8263 293.963 12.1597 285.73 8.15967 234.13Z" fill="#EA797F" stroke="#EA797F"/>
<path fill-rule="evenodd" clip-rule="evenodd" d="M9.27288 233.861C8.89475 233.949 8.52362 234.038 8.15967 234.13C8.1981 234.626 8.24252 235.117 8.2928 235.605L112.766 291.747C113.408 291.712 114.04 291.673 114.66 291.63C114.423 291.119 114.184 290.612 113.944 290.11L9.27288 233.861Z" fill="#EF5159"/>
<path d="M35.1597 249.13L34.1597 232.13" stroke="#EF5159" stroke-width="2"/>
<path d="M55.1597 260.13L28.8555 269.063L28.6597 269.13" stroke="#EF5159" stroke-width="2"/>
<path d="M79.6597 272.63L77.6597 248.63" stroke="#EF5159" stroke-width="2"/>
<path d="M0.644618 272.267C21.5437 259.334 74.5841 245.741 119.553 294.832C88.0137 307.297 20.0762 320.236 0.644618 272.267Z" fill="#633DFF" stroke="#633DFF"/>
<path fill-rule="evenodd" clip-rule="evenodd" d="M1.62441 271.675C1.29042 271.872 0.963788 272.07 0.644644 272.267C0.831362 272.728 1.02256 273.183 1.21816 273.633L117.784 295.518C118.386 295.289 118.976 295.061 119.553 294.832C119.173 294.417 118.792 294.007 118.411 293.6L1.62441 271.675Z" fill="#4115F3"/>
<path d="M30.9183 278.391L24.8194 262.491" stroke="#4115F3" stroke-width="2"/>
<path d="M53.3098 282.821L30.9438 299.297L30.7773 299.42" stroke="#4115F3" stroke-width="2"/>
<path d="M80.4442 287.318L71.2733 265.049" stroke="#4115F3" stroke-width="2"/>
<path d="M275.831 199.425C255.427 213.125 221.159 255.831 247.321 317.05C271.689 293.464 311.508 236.918 275.831 199.425Z" fill="#633DFF" stroke="#633DFF"/>
<path fill-rule="evenodd" clip-rule="evenodd" d="M274.887 200.073C275.205 199.85 275.519 199.634 275.831 199.425C276.174 199.785 276.51 200.147 276.839 200.511L248.675 315.721C248.219 316.175 247.767 316.618 247.321 317.05C247.1 316.532 246.883 316.016 246.67 315.501L274.887 200.073Z" fill="#4115F3"/>
<path d="M268.917 229.528L256.95 217.412" stroke="#4115F3" stroke-width="2"/>
<path d="M263.713 251.752L287.95 238.178L288.131 238.077" stroke="#4115F3" stroke-width="2"/>
<path d="M256.614 278.325L240.113 260.782" stroke="#4115F3" stroke-width="2"/>
<path d="M311.5 248.13C287.667 242.13 233 245.23 205 305.63C238.833 307.963 307.5 299.73 311.5 248.13Z" fill="#EA797F" stroke="#EA797F"/>
<path fill-rule="evenodd" clip-rule="evenodd" d="M310.387 247.861C310.765 247.949 311.136 248.038 311.5 248.13C311.462 248.626 311.417 249.117 311.367 249.605L206.894 305.747C206.251 305.712 205.62 305.673 205 305.63C205.237 305.119 205.475 304.612 205.716 304.11L310.387 247.861Z" fill="#EF5159"/>
<path d="M284.5 263.13L285.5 246.13" stroke="#EF5159" stroke-width="2"/>
<path d="M264.5 274.13L290.804 283.063L291 283.13" stroke="#EF5159" stroke-width="2"/>
<path d="M240 286.63L242 262.63" stroke="#EF5159" stroke-width="2"/>
<path d="M322.015 286.267C301.116 273.334 248.076 259.741 203.106 308.832C234.646 321.297 302.583 334.236 322.015 286.267Z" fill="#633DFF" stroke="#633DFF"/>
<path fill-rule="evenodd" clip-rule="evenodd" d="M321.035 285.675C321.369 285.872 321.696 286.07 322.015 286.267C321.828 286.728 321.637 287.183 321.442 287.633L204.876 309.518C204.274 309.289 203.684 309.061 203.106 308.832C203.486 308.417 203.867 308.007 204.249 307.6L321.035 285.675Z" fill="#4115F3"/>
<path d="M291.741 292.391L297.84 276.491" stroke="#4115F3" stroke-width="2"/>
<path d="M269.35 296.821L291.716 313.297L291.882 313.42" stroke="#4115F3" stroke-width="2"/>
<path d="M242.215 301.318L251.386 279.049" stroke="#4115F3" stroke-width="2"/>
<path d="M195.235 25.8877C180.035 -13.3123 150.569 0.554414 137.735 12.3877C120.535 10.7877 115.235 28.3878 119.735 31.8878C124.735 34.8878 124.915 41.5928 121.735 42.3878C116.402 43.7211 106.235 48.7878 108.235 58.3878C110.235 67.9878 116.402 72.7211 119.235 73.8878C102.835 84.6878 105.069 91.7211 108.235 93.8878C121.035 101.888 121.235 107.554 119.735 109.388C100.935 134.988 113.235 141.054 121.735 140.888C104.935 156.888 109.735 168.221 114.235 171.888C118.635 173.488 111.235 184.388 114.735 188.888C126.735 189.388 123.735 182.888 130.735 184.888L194.735 190.388C195.535 192.388 196.402 183.888 196.735 179.388H199.735C198.935 184.588 198.402 187.054 199.735 189.388C207.235 189.388 204.492 191.969 209.235 190.388C210.735 189.888 210.569 180.388 208.735 178.388C206.335 175.588 208.402 171.554 209.735 169.888C220.935 153.888 210.735 144.888 204.235 142.388C219.835 122.388 212.735 114.888 209.235 111.888C202.435 105.888 206.735 98.7211 209.735 95.8878C216.935 85.8878 213.402 80.0544 210.735 78.3878C202.735 75.1878 207.521 68.3878 209.235 65.3878C218.835 48.5878 210.569 41.7211 205.235 40.3878C193.635 37.5878 196.235 29.3878 195.235 25.8877Z" fill="#FF9315"/>
<path d="M191 200L189 188.5L147.28 182C145.973 189.808 148.587 205.533 169.5 205.969C190.413 206.405 190.5 203.5 191 200Z" fill="#4115F3"/>
<path fill-rule="evenodd" clip-rule="evenodd" d="M88.5 242C88.3328 242 88.1662 241.998 88 241.994V237H95V208H88V203.006C88.1662 203.002 88.3328 203 88.5 203H233.5C244.27 203 253 211.73 253 222.5C253 233.27 244.27 242 233.5 242H88.5Z" fill="#E2CCFF"/>
<path fill-rule="evenodd" clip-rule="evenodd" d="M94 237H232.5C240.508 237 247 230.508 247 222.5C247 214.492 240.508 208 232.5 208H94V237Z" fill="#FBFBF9"/>
<path d="M94 213H248" stroke="#E2CCFF"/>
<path d="M94 219H248" stroke="#E2CCFF"/>
<path d="M94 225H248" stroke="#E2CCFF"/>
<path d="M94 232H248" stroke="#E2CCFF"/>
<path fill-rule="evenodd" clip-rule="evenodd" d="M88.5 320C88.3328 320 88.1662 319.998 88 319.994V315H95V286H88V281.006C88.1662 281.002 88.3328 281 88.5 281H233.5C244.27 281 253 289.73 253 300.5C253 311.27 244.27 320 233.5 320H88.5Z" fill="#FF9315"/>
<path fill-rule="evenodd" clip-rule="evenodd" d="M94 315H232.5C240.508 315 247 308.508 247 300.5C247 292.492 240.508 286 232.5 286H94V315Z" fill="#FBFBF9"/>
<path d="M94 291H248" stroke="#FF9315"/>
<path d="M94 297H248" stroke="#FF9315"/>
<path d="M94 303H248" stroke="#FF9315"/>
<path d="M94 310H248" stroke="#FF9315"/>
<path fill-rule="evenodd" clip-rule="evenodd" d="M252.5 281C252.667 281 252.834 280.998 253 280.994V276H246V247H253V242.006C252.834 242.002 252.667 242 252.5 242H107.5C96.7304 242 88 250.73 88 261.5C88 272.27 96.7305 281 107.5 281H252.5Z" fill="#A0AFFF"/>
<path fill-rule="evenodd" clip-rule="evenodd" d="M247 276H108.5C100.492 276 94 269.508 94 261.5C94 253.492 100.492 247 108.5 247H247V276Z" fill="#FBFBF9"/>
<path d="M247 252H93" stroke="#A0AFFF"/>
<path d="M247 258H93" stroke="#A0AFFF"/>
<path d="M247 264H93" stroke="#A0AFFF"/>
<path d="M247 271H93" stroke="#A0AFFF"/>
<path d="M172 269.5L171.5 265L181.5 264.5L182 268.5L184.5 279L185 284.5L172.5 285.5L171.5 280L172 269.5Z" fill="#FFECE1" stroke="#FFECE1"/>
<path d="M150.533 250.019L150.797 245.499L140.785 245.522L140.494 249.543L138.546 260.159L138.334 265.678L150.869 266.024L151.581 260.479L150.533 250.019Z" fill="#FFECE1" stroke="#FFECE1"/>
<path d="M170 289.538L171.5 278.577L173 286.077C174.6 283.769 181.667 284.346 185 284.923V278C186.333 281.654 189 289.308 189 290.692C189 292.077 187.667 292.808 187 293H172C170.4 293 170 290.692 170 289.538Z" fill="#1E1E1E" stroke="#1E1E1E"/>
<path d="M153.577 269.926L151.506 259.058L150.4 266.626C148.682 264.405 141.655 265.35 138.356 266.1L137.995 259.187C136.854 262.905 134.59 270.688 134.663 272.07C134.735 273.453 136.105 274.113 136.781 274.271L151.76 273.487C153.358 273.404 153.637 271.078 153.577 269.926Z" fill="#1E1E1E" stroke="#1E1E1E"/>
<path d="M190 197.5L188.5 189C185.455 187.897 178.75 186.816 181.827 191.732C184.904 196.647 188.397 197.815 190 197.5Z" fill="#633DFF" stroke="#633DFF"/>
<path d="M136 180C138.8 174.8 138.833 154.5 138.5 145C154 136.5 185.4 123.6 183 140C180.6 156.4 185.5 178.5 190 190.5V191L189 191.5H153.5C146.5 189.833 133.2 185.2 136 180Z" fill="#FBFBF9" stroke="#FBFBF9"/>
<path d="M160.128 209.23L170.933 267.954L182.377 266.828L182.022 207.075C182.2 188.468 173.512 186.979 168.121 188.347C158.045 192.152 159.092 203.806 160.128 209.23Z" fill="#633DFF" stroke="#633DFF"/>
<path d="M135.663 190.143L140.155 249.684L151.655 249.782L157.662 190.331C159.82 171.849 151.34 169.443 145.833 170.229C135.41 172.941 135.21 184.639 135.663 190.143Z" fill="#633DFF" stroke="#633DFF"/>
<path d="M137.5 9.5C137.833 7 139.8 1.8 145 1" stroke="#FF9315"/>
<path d="M135.5 10.5C134 8.33333 130.3 4.59999 127.5 6.99999" stroke="#FF9315"/>
<rect x="157" y="84" width="7" height="16" fill="#FFECE1"/>
<path d="M161.5 42C145.1 47.2 137.333 39.8333 135.5 35.5C137.1 49.5 132.5 57.6667 130 60C121.6 65.6 130 73 134.5 69.5C139.3 83.1 151.5 85.5 157 85H166C175.6 85.8 183.667 75 186.5 69.5C196.5 71.5 194.5 59.5 189 59.5C181 59.9 176 54 174.5 51C174.5 43 165.833 41.6667 161.5 42Z" fill="#FFECE1" stroke="#FFECE1"/>
<path d="M169.811 64C171.568 62.1818 176.784 59.6363 183.595 64M170.216 63.0909L169 61.7272" stroke="#7B6768"/>
<path d="M173.865 61.7273L173.459 59" stroke="#7B6768"/>
<path d="M178.73 61.7273L179.135 59" stroke="#7B6768"/>
<path d="M182.784 63.0909L184 61.2727" stroke="#7B6768"/>
<path d="M136.811 64C138.568 62.1818 143.784 59.6363 150.595 64M137.216 63.0909L136 61.7272" stroke="#7B6768"/>
<path d="M140.865 61.7273L140.459 59" stroke="#7B6768"/>
<path d="M145.73 61.7273L146.135 59" stroke="#7B6768"/>
<path d="M149.784 63.0909L151 61.2727" stroke="#7B6768"/>
<path d="M148 57C148.229 57.16 150.5 54.8947 148 54.5C140.4 53.3 136.5 55.9999 135.5 57C136 56.4999 143 53.5 148 57Z" fill="#C07925" stroke="#C07925"/>
<path d="M172.164 54.5C169.664 54.8947 171.935 57.16 172.164 57C176.507 53.9596 183.341 56.2014 184.536 56.8427C184.583 56.8964 184.625 56.949 184.664 57C184.769 57 184.717 56.9396 184.536 56.8427C183.36 55.4908 179.473 53.3459 172.164 54.5Z" fill="#C07925"/>
<path d="M184.664 57C183.664 55.6666 179.764 53.3 172.164 54.5C169.664 54.8947 171.935 57.16 172.164 57C177.164 53.5 185.464 57 184.664 57Z" stroke="#C07925"/>
<path d="M154 78C156 80.5 161.3 84 166.5 78" stroke="#FBB2A1"/>
<circle cx="176" cy="62" r="10.5" fill="#6DB1B2" fill-opacity="0.23" stroke="#EA797F"/>
<circle cx="144" cy="62" r="10.5" fill="#6DB1B2" fill-opacity="0.23" stroke="#EA797F"/>
<path d="M154.5 63C156.333 61.8333 161.1 60.2 165.5 63" stroke="#EA797F"/>
<path d="M150.5 99C142.035 99.7696 137.333 111.5 138.5 118C151.333 122.833 180.7 129.3 183.5 116.5C186.3 103.7 176 99.5 174 99C169.5 98.5 156 98.5 150.5 99Z" fill="#FBFBF9" stroke="#FBFBF9"/>
<path d="M170.674 100.66C170.674 105.078 165.592 108.66 161.174 108.66C156.755 108.66 151.674 105.078 151.674 100.66C151.496 97.4038 156.255 98.16 160.674 98.16C165.092 98.16 170.674 97.2783 170.674 100.66Z" fill="#FFECE1"/>
<path d="M165 118C175.811 112.249 196.919 102.472 194.86 109.374C192.8 116.275 174.095 118 165 118Z" fill="#E6FEFF" stroke="#E6FEFF"/>
<path d="M157 118C146.189 112.249 125.081 102.472 127.14 109.374C129.2 116.275 147.905 118 157 118Z" fill="#E6FEFF" stroke="#E6FEFF"/>
<path d="M125 109L157 117.5V157L125 150.5V109Z" fill="#A0AFFF"/>
<path d="M197 109L165 117.5V157L197 150.5V109Z" fill="#A0AFFF"/>
<rect x="157" y="117" width="8" height="41" fill="#633DFF"/>
<path d="M116 136C116.4 124.4 125.5 122.5 130 123C130.5 124.333 131.7 130.1 132.5 142.5C133.3 154.9 127.833 157.333 125 157H119.5C115.1 156.2 115.333 142.667 116 136Z" fill="#FBFBF9" stroke="#FBFBF9"/>
<rect x="123" y="121" width="13" height="4" rx="2" fill="#FFECE1"/>
<rect x="122" y="125" width="15" height="4" rx="2" fill="#FFECE1"/>
<rect x="123" y="129" width="13" height="4" rx="2" fill="#FFECE1"/>
<rect x="123" y="133" width="12" height="4" rx="2" fill="#FFECE1"/>
<path d="M135.5 123C135.5 124 134.552 124.5 134 124.5C133.448 124.5 133 123.552 133 123C133 122.448 133.448 121.5 134 121.5C134.552 121.5 135.5 122 135.5 123Z" fill="#FBFBF9"/>
<path d="M136.5 127C136.5 128 135.552 128.5 135 128.5C134.448 128.5 134 127.552 134 127C134 126.448 134.448 125.5 135 125.5C135.552 125.5 136.5 126 136.5 127Z" fill="#FBFBF9"/>
<path d="M135.5 131C135.5 132 134.552 132.5 134 132.5C133.448 132.5 133 131.552 133 131C133 130.448 133.448 129.5 134 129.5C134.552 129.5 135.5 130 135.5 131Z" fill="#FBFBF9"/>
<path d="M134.5 135C134.5 136 133.552 136.5 133 136.5C132.448 136.5 132 135.552 132 135C132 134.448 132.448 133.5 133 133.5C133.552 133.5 134.5 134 134.5 135Z" fill="#FBFBF9"/>
<path d="M125.5 123.5V126C124.833 126.167 123.167 126.222 123.5 126C125 125 124.5 124.5 124 123.5" stroke="#FFECE1"/>
<path d="M207.579 136C207.179 124.4 198.079 122.5 193.579 123C193.079 124.333 191.879 130.1 191.079 142.5C190.279 154.9 195.746 157.333 198.579 157H204.079C208.479 156.2 208.246 142.667 207.579 136Z" fill="#FBFBF9" stroke="#FBFBF9"/>
<rect width="13" height="4" rx="2" transform="matrix(-1 0 0 1 199 121)" fill="#FFECE1"/>
<rect width="15" height="4" rx="2" transform="matrix(-1 0 0 1 200 125)" fill="#FFECE1"/>
<rect width="13" height="4" rx="2" transform="matrix(-1 0 0 1 199 129)" fill="#FFECE1"/>
<rect width="12" height="4" rx="2" transform="matrix(-1 0 0 1 199 133)" fill="#FFECE1"/>
<path d="M186.5 123C186.5 124 187.448 124.5 188 124.5C188.552 124.5 189 123.552 189 123C189 122.448 188.552 121.5 188 121.5C187.448 121.5 186.5 122 186.5 123Z" fill="#FBFBF9"/>
<path d="M185.5 127C185.5 128 186.448 128.5 187 128.5C187.552 128.5 188 127.552 188 127C188 126.448 187.552 125.5 187 125.5C186.448 125.5 185.5 126 185.5 127Z" fill="#FBFBF9"/>
<path d="M186.5 131C186.5 132 187.448 132.5 188 132.5C188.552 132.5 189 131.552 189 131C189 130.448 188.552 129.5 188 129.5C187.448 129.5 186.5 130 186.5 131Z" fill="#FBFBF9"/>
<path d="M187.5 135C187.5 136 188.448 136.5 189 136.5C189.552 136.5 190 135.552 190 135C190 134.448 189.552 133.5 189 133.5C188.448 133.5 187.5 134 187.5 135Z" fill="#FBFBF9"/>
</svg>
